# xmcd
#
# Track frame offsets: 
#        150
#        18355
#        43781
#        65880
#        83724
#        107147
#        128846
#        149291
#        167092
#        183964
#        202939
#        228620
#        246468
#        265978
#        289886
#        302929
#        317673
#
# Disc length: 4450 seconds
#
# Revision: 2
# Processed by: cddbd v1.5.2PL0 Copyright (c) Steve Scherf et al.
# Submitted via: ExactAudioCopy v1.3
#
DISCID=fe116011
DTITLE=Various Artist - Smooth Grooves, Sophisticates 80s Philly Soul
DYEAR=2011
DGENRE=Soul
TTITLE0=Lou Rawls - Lady Love
TTITLE1=Patti LaBelle - I'm In Love Again
TTITLE2=Teddy Pendergrass - Easy Easy, Got To Take It Easy
TTITLE3=MFSB feat. Carla Benson - Tell Me Why
TTITLE4=McFadden and Whitehead - I've Been Pushed Aside
TTITLE5=The Jones Girls - When I'm Gone
TTITLE6=The Stylistics - Mine All Mine
TTITLE7=Dee Dee Sharp Gamble - I Believe In Love
TTITLE8=Billy Paul - You're My Sweetness
TTITLE9=Jean Carn - Start The Fire
TTITLE10=The Intruders - Everyone's A Star
TTITLE11=Silk - (I Can't Stop) Turning You On
TTITLE12=Phyllis Hyman - Set A Little Trap
TTITLE13=The O'Jays - Lovin' You
TTITLE14=Bunny Sigler - Your Love Is Good
TTITLE15=Instant Funk - So Glad I'm The One
TTITLE16=Anthony White - Yes You Need Love
EXTD=
EXTT0=
EXTT1=
EXTT2=
EXTT3=
EXTT4=
EXTT5=
EXTT6=
EXTT7=
EXTT8=
EXTT9=
EXTT10=
EXTT11=
EXTT12=
EXTT13=
EXTT14=
EXTT15=
EXTT16=
PLAYORDER=
